<svg width="32" height="32" viewBox="0 0 32 32" fill="none" xmlns="http://www.w3.org/2000/svg">
<path d="M16 0L17.5025 9.41729L22.9421 1.5845L20.2098 10.7211L28.5093 6.02416L22.0833 13.0704L31.5988 12.4397L22.752 16L31.5988 19.5603L22.0833 18.9296L28.5093 25.9758L20.2098 21.2789L22.9421 30.4155L17.5025 22.5827L16 32L14.4975 22.5827L9.05786 30.4155L11.7902 21.2789L3.4907 25.9758L9.91666 18.9296L0.401154 19.5603L9.248 16L0.401154 12.4397L9.91666 13.0704L3.4907 6.02416L11.7902 10.7211L9.05786 1.5845L14.4975 9.41729L16 0Z" fill="#CBCBCB"/>
</svg>